Coordinates
version=1
nRows=27
nColumns=38
inDegrees=no

Units are S.I. units (second, meters, Newtons, ...)
If the header above contains a line with 'inDegrees', this indicates whether rotational values are in degrees (yes) or radians (no).

endheader
time	pelvis_tilt	pelvis_list	pelvis_rotation	pelvis_tx	pelvis_ty	pelvis_tz	hip_flexion_r	hip_adduction_r	hip_rotation_r	knee_angle_r	ankle_angle_r	subtalar_angle_r	mtp_angle_r	hip_flexion_l	hip_adduction_l	hip_rotation_l	knee_angle_l	ankle_angle_l	subtalar_angle_l	mtp_angle_l	lumbar_extension	lumbar_bending	lumbar_rotation	arm_flex_r	arm_add_r	arm_rot_r	elbow_flex_r	pro_sup_r	wrist_flex_r	wrist_dev_r	arm_flex_l	arm_add_l	arm_rot_l	elbow_flex_l	pro_sup_l	wrist_flex_l	wrist_dev_l
0	2.06924	1.34775	-0.427518	0.707456	-0.645938	1.00677	0.136351	0.14572	-0.520372	0.369262	0.0351747	0	0	0.096607	-0.289768	0.0923097	1.12838	-0.0320879	0	0	-0.324027	0.2161	0.0048323	-0.108066	-0.219954	0.0203899	0.463052	1.40066	0	0	0.0312261	-0.240768	0.358857	0.347789	1.33074	0	0
0.01	2.02841	1.3759	-0.400882	0.710538	-0.63848	1.00508	0.151932	0.123569	-0.50941	0.382761	0.0594038	0	0	0.139763	-0.260656	0.0883718	1.1621	-0.0211552	0	0	-0.301407	0.187229	0.00829346	-0.105628	-0.214703	0.0223315	0.456445	1.40015	0	0	0.027074	-0.246412	0.362631	0.351494	1.32403	0	0
0.02	2.08934	1.34845	-0.45721	0.711217	-0.630343	1.00962	0.103104	0.155638	-0.502984	0.346242	0.0436955	0	0	0.136671	-0.277252	0.100489	1.17704	-0.0165849	0	0	-0.328618	0.21031	0.0116653	-0.0944594	-0.217637	0.0209848	0.44669	1.4013	0	0	0.0342684	-0.239841	0.371183	0.345457	1.3016	0	0
0.03	2.05424	1.37473	-0.43707	0.714024	-0.62233	1.00776	0.114728	0.134312	-0.498716	0.355654	0.0631992	0	0	0.161775	-0.25044	0.0900087	1.18237	0.0048163	0	0	-0.306082	0.183999	0.0176285	-0.0954162	-0.213482	0.0205298	0.443006	1.40197	0	0	0.0307184	-0.242278	0.370308	0.344875	1.29914	0	0
0.04	2.06789	1.38277	-0.448083	0.71593	-0.615295	1.00859	0.110285	0.137432	-0.486178	0.354341	0.0619376	0	0	0.201597	-0.23872	0.100112	1.21464	-0.00273373	0	0	-0.304526	0.174345	0.0162282	-0.0901282	-0.209401	0.0189529	0.435346	1.40348	0	0	0.0366859	-0.242039	0.3692	0.339396	1.29628	0	0
0.05	2.0528	1.38415	-0.441841	0.717265	-0.607459	1.00962	0.0940454	0.132627	-0.494465	0.341022	0.0739161	0	0	0.221176	-0.229294	0.101088	1.2224	-0.00104985	0	0	-0.30224	0.174131	0.0215238	-0.0839457	-0.209973	0.017721	0.429714	1.40555	0	0	0.0379768	-0.23763	0.366088	0.334559	1.29547	0	0
0.06	2.06818	1.38938	-0.452114	0.719079	-0.600427	1.01002	0.0872048	0.139252	-0.478482	0.337317	0.0708187	0	0	0.247045	-0.220158	0.116538	1.24419	0.0587605	0	0	-0.301164	0.168499	0.0200695	-0.081544	-0.207883	0.0135152	0.425224	1.41274	0	0	0.0452131	-0.234848	0.357225	0.326879	1.30214	0	0
0.07	2.06919	1.39119	-0.457187	0.720557	-0.592926	1.01075	0.0750311	0.141655	-0.472966	0.328818	0.0728864	0	0	0.265663	-0.214937	0.115785	1.24485	0.0624621	0	0	-0.301446	0.166424	0.025154	-0.0787384	-0.208692	0.0141764	0.424184	1.41369	0	0	0.0490889	-0.233182	0.35655	0.325456	1.30388	0	0
0.08	2.15886	1.38655	-0.559576	0.723147	-0.584662	1.0136	0.0380025	0.145926	-0.455185	0.30885	0.0712642	0	0	0.257268	-0.210418	0.0993845	1.22212	0.00798007	0	0	-0.321666	0.157857	0.0387371	-0.073301	-0.20687	0.0116034	0.420879	1.41731	0	0	0.0539151	-0.233424	0.351881	0.322776	1.31143	0	0
0.09	2.19615	1.39416	-0.6002	0.724494	-0.578018	1.01497	0.0254404	0.139015	-0.447864	0.301518	0.074343	0	0	0.263527	-0.175576	0.128966	1.20423	0.0124559	0	0	-0.327431	0.146345	0.0412345	-0.0665494	-0.206133	0.0127556	0.419124	1.41699	0	0	0.0607418	-0.234691	0.352548	0.322702	1.31249	0	0
0.1	2.22417	1.40582	-0.635376	0.726117	-0.570594	1.01486	0.0227544	0.126868	-0.436527	0.309445	0.0875628	0	0	0.279384	-0.152612	0.133362	1.19314	0.0125198	0	0	-0.324713	0.131644	0.0452437	-0.065307	-0.205952	0.0140236	0.419914	1.41606	0	0	0.0621887	-0.23753	0.354075	0.324423	1.3134	0	0
0.11	2.26784	1.41475	-0.679742	0.728037	-0.564696	1.01619	0.0145435	0.11769	-0.431349	0.306357	0.0900593	0	0	0.286118	-0.166517	0.0788232	1.15775	0.0155569	0	0	-0.330929	0.118257	0.0438476	-0.0554598	-0.202747	0.01487	0.416051	1.4142	0	0	0.069761	-0.24235	0.356117	0.327301	1.31294	0	0
0.12	2.30882	1.41382	-0.731028	0.72956	-0.556954	1.01707	-0.00394585	0.117416	-0.421771	0.299235	0.0949648	0	0	0.2915	-0.172054	0.0526949	1.14076	0.0194475	0	0	-0.338111	0.112165	0.0537348	-0.0527563	-0.203881	0.0149517	0.415969	1.4123	0	0	0.0710357	-0.244115	0.359408	0.332022	1.31105	0	0
0.13	2.33279	1.41417	-0.760485	0.731408	-0.549515	1.0176	-0.0181974	0.117727	-0.412118	0.292159	0.0980808	0	0	0.301007	-0.173341	0.0368238	1.12097	0.0222378	0	0	-0.342884	0.107717	0.0588798	-0.0495802	-0.204432	0.0167363	0.416579	1.4105	0	0	0.073771	-0.246114	0.362458	0.334784	1.30882	0	0
0.14	2.35947	1.41624	-0.790648	0.732523	-0.542551	1.01809	-0.0305677	0.115959	-0.40509	0.285975	0.101813	0	0	0.309421	-0.168294	0.0295341	1.0954	0.0248578	0	0	-0.347235	0.102448	0.061052	-0.0445438	-0.204578	0.0199454	0.416026	1.40839	0	0	0.0770252	-0.247924	0.365429	0.337925	1.30613	0	0
0.15	2.34653	1.41736	-0.780722	0.73351	-0.53503	1.01762	-0.0389366	0.118785	-0.39982	0.28111	0.106759	0	0	0.324239	-0.164337	0.0326208	1.07435	0.0302318	0	0	-0.345533	0.103552	0.0639462	-0.0425131	-0.206998	0.0243547	0.416731	1.40631	0	0	0.0775416	-0.247651	0.367589	0.34104	1.30316	0	0
0.16	2.36498	1.42642	-0.798083	0.73283	-0.525699	1.01531	-0.0489052	0.112566	-0.38928	0.273908	0.122362	0	0	0.341381	-0.141694	0.0502326	1.05846	0.0402104	0	0	-0.333219	0.0981606	0.0605099	-0.0501875	-0.211148	0.0301338	0.422124	1.40345	0	0	0.0704437	-0.247355	0.37015	0.345271	1.30036	0	0
0.17	2.28592	1.4125	-0.727726	0.734862	-0.519077	1.01569	-0.0594601	0.133867	-0.390049	0.269014	0.11842	0	0	0.351354	-0.162521	0.0497912	1.03196	0.0451811	0	0	-0.339506	0.115435	0.0741986	-0.0458427	-0.21799	0.0508142	0.426138	1.38147	0	0	0.0743814	-0.244872	0.376583	0.346666	1.2892	0	0
0.18	2.29508	1.41489	-0.736785	0.735961	-0.51195	1.01548	-0.068924	0.13347	-0.384405	0.263862	0.121131	0	0	0.358707	-0.159676	0.0423483	0.99505	0.0455423	0	0	-0.341843	0.112652	0.0733829	-0.0399602	-0.217435	0.0557247	0.423443	1.37542	0	0	0.078426	-0.245041	0.376991	0.346025	1.28735	0	0
0.19	2.31662	1.41769	-0.757508	0.736634	-0.505009	1.01538	-0.0798458	0.131379	-0.38077	0.258555	0.124507	0	0	0.362322	-0.155413	0.0326586	0.953138	0.0451406	0	0	-0.345397	0.108495	0.0713665	-0.0330968	-0.216132	0.0599632	0.419052	1.36928	0	0	0.0826206	-0.245073	0.376376	0.344807	1.28667	0	0
0.2	2.3426	1.41967	-0.782049	0.737301	-0.497855	1.01526	-0.0919946	0.129472	-0.377245	0.252887	0.127941	0	0	0.363203	-0.151281	0.02215	0.908348	0.0458019	0	0	-0.349759	0.104571	0.0686417	-0.0259215	-0.214428	0.0634368	0.41311	1.36417	0	0	0.0868087	-0.244934	0.374577	0.343006	1.28698	0	0
0.21	2.38975	1.40201	-0.837882	0.738272	-0.490559	1.01784	-0.147362	0.138058	-0.367044	0.197275	0.117033	0	0	0.35223	-0.18701	-0.056831	0.877442	0.0354345	0	0	-0.376916	0.109373	0.0746793	-0.011069	-0.213638	0.0684979	0.403675	1.35173	0	0	0.0931997	-0.240978	0.358921	0.336333	1.302	0	0
0.22	2.40175	1.41796	-0.84293	0.738808	-0.483496	1.01525	-0.123569	0.129168	-0.360833	0.237115	0.134159	0	0	0.353704	-0.148353	-0.00744479	0.810059	0.0502628	0	0	-0.36548	0.0984301	0.0694563	-0.0125154	-0.212102	0.069865	0.404184	1.35029	0	0	0.0976879	-0.242078	0.35887	0.335661	1.30375	0	0
0.23	2.45966	1.42757	-0.894702	0.738371	-0.477375	1.01518	-0.126104	0.114458	-0.370018	0.242724	0.142747	0	0	0.357357	-0.144185	-0.0509214	0.759611	0.043357	0	0	-0.370287	0.0878217	0.06037	-0.00324996	-0.209832	0.0712329	0.400319	1.3485	0	0	0.105639	-0.242435	0.357359	0.333733	1.30528	0	0
0.24	2.4148	1.40755	-0.860495	0.738865	-0.468411	1.01569	-0.175582	0.13337	-0.360984	0.188268	0.133859	0	0	0.351733	-0.182894	-0.118129	0.734669	0.0507496	0	0	-0.384291	0.106033	0.0720174	-0.000839116	-0.215454	0.0765931	0.40212	1.34312	0	0	0.104713	-0.235676	0.344049	0.328574	1.32	0	0
0.25	2.45307	1.4221	-0.894057	0.739295	-0.460948	1.01343	-0.155588	0.121902	-0.354593	0.228129	0.149571	0	0	0.359299	-0.167998	-0.139846	0.686919	0.0573987	0	0	-0.377086	0.0922429	0.0678021	-0.00215141	-0.213358	0.0767691	0.402739	1.34219	0	0	0.107932	-0.238539	0.344475	0.330823	1.3208	0	0
0.26	2.42793	1.42895	-0.865955	0.739291	-0.453635	1.01182	-0.154931	0.119832	-0.358366	0.231933	0.160802	0	0	0.347451	-0.135139	-0.0763477	0.600592	0.0560647	0	0	-0.370836	0.0924674	0.0661605	-0.00362066	-0.214921	0.0773112	0.406349	1.34066	0	0	0.109195	-0.238139	0.34542	0.333072	1.32182	0	0
